<svg width="177" height="79" viewBox="0 0 177 79" fill="none" xmlns="http://www.w3.org/2000/svg">
<path d="M0.245578 77V20.873H22.3065V37.8035L18.7151 32.9809C20.4253 28.6029 23.1615 25.3194 26.9238 23.1304C30.6862 20.9414 35.2009 19.8469 40.4682 19.8469V40.3687C39.4421 40.2319 38.5186 40.1293 37.6978 40.0609C36.9453 39.9925 36.1586 39.9583 35.3378 39.9583C31.8491 39.9583 28.976 40.8817 26.7186 42.7287C24.5296 44.5072 23.4351 47.6197 23.4351 52.0661V77H0.245578ZM71.1658 78.0261C66.309 78.0261 61.7942 76.8632 57.6215 74.5374C53.5171 72.1432 50.2337 68.7913 47.771 64.4817C45.3084 60.1038 44.0771 54.9049 44.0771 48.8852C44.0771 42.8655 45.3084 37.7009 47.771 33.3913C50.2337 29.0133 53.5171 25.6614 57.6215 23.3356C61.7942 21.0098 66.309 19.8469 71.1658 19.8469C76.091 19.8469 80.127 20.9072 83.2737 23.0278C86.4203 25.08 88.7461 28.2609 90.251 32.5704C91.756 36.8116 92.5084 42.2499 92.5084 48.8852C92.5084 55.589 91.7902 61.0956 90.3537 65.4052C88.9855 69.7148 86.7282 72.8957 83.5815 74.9478C80.5032 77 76.3647 78.0261 71.1658 78.0261ZM76.7067 59.967C78.4168 59.967 79.956 59.5565 81.3241 58.7357C82.6922 57.9148 83.7867 56.6835 84.6076 55.0417C85.4284 53.3316 85.8389 51.2794 85.8389 48.8852C85.8389 46.4226 85.4284 44.4046 84.6076 42.8313C83.7867 41.1896 82.6922 39.9583 81.3241 39.1374C79.956 38.3165 78.4168 37.9061 76.7067 37.9061C74.9966 37.9061 73.4574 38.3165 72.0893 39.1374C70.7212 39.9583 69.6267 41.1896 68.8058 42.8313C67.985 44.4046 67.5745 46.4226 67.5745 48.8852C67.5745 51.2794 67.985 53.3316 68.8058 55.0417C69.6267 56.6835 70.7212 57.9148 72.0893 58.7357C73.4574 59.5565 74.9966 59.967 76.7067 59.967ZM86.5571 77V69.407L86.4545 48.8852L85.4284 28.3635V0.864337H108.618V77H86.5571ZM149.054 78.0261C142.624 78.0261 136.912 76.7948 131.918 74.3322C126.925 71.8696 122.991 68.4493 120.118 64.0713C117.314 59.6249 115.911 54.5629 115.911 48.8852C115.911 43.2075 117.314 38.1797 120.118 33.8017C122.991 29.4238 126.925 26.0035 131.918 23.5409C136.912 21.0783 142.624 19.8469 149.054 19.8469C155.894 19.8469 161.743 21.3177 166.6 24.2591C171.457 27.2006 174.809 31.2707 176.656 36.4696L158.699 45.2939C157.536 42.6945 156.1 40.8133 154.39 39.6504C152.748 38.4875 150.935 37.9061 148.951 37.9061C147.241 37.9061 145.634 38.3165 144.129 39.1374C142.692 39.9583 141.529 41.1896 140.64 42.8313C139.819 44.4046 139.409 46.4226 139.409 48.8852C139.409 51.3478 139.819 53.4 140.64 55.0417C141.529 56.6835 142.692 57.9148 144.129 58.7357C145.634 59.5565 147.241 59.967 148.951 59.967C150.935 59.967 152.748 59.3855 154.39 58.2226C156.1 57.0597 157.536 55.1785 158.699 52.5791L176.656 61.4035C174.809 66.6023 171.457 70.6725 166.6 73.6139C161.743 76.5554 155.894 78.0261 149.054 78.0261Z" fill="white"/>
</svg>
