<svg width="75" height="65" viewBox="0 0 75 65" fill="none" xmlns="http://www.w3.org/2000/svg">
<g clip-path="url(#clip0_766_976)">
<path d="M6.75 57.5L16.65 21.5L19.95 35.15C15.65 35.15 12.1 33.9 9.3 31.4C6.6 28.8 5.25 25.3 5.25 20.9C5.25 16.6 6.65 13.15 9.45 10.55C12.25 7.84999 15.7 6.49999 19.8 6.49999C24 6.49999 27.45 7.84999 30.15 10.55C32.85 13.15 34.2 16.6 34.2 20.9C34.2 22.2 34.1 23.5 33.9 24.8C33.8 26 33.45 27.45 32.85 29.15C32.35 30.85 31.5 33.1 30.3 35.9L21.6 57.5H6.75ZM42.15 57.5L52.05 21.5L55.35 35.15C51.05 35.15 47.5 33.9 44.7 31.4C42 28.8 40.65 25.3 40.65 20.9C40.65 16.6 42.05 13.15 44.85 10.55C47.65 7.84999 51.1 6.49999 55.2 6.49999C59.4 6.49999 62.85 7.84999 65.55 10.55C68.25 13.15 69.6 16.6 69.6 20.9C69.6 22.2 69.5 23.5 69.3 24.8C69.2 26 68.85 27.45 68.25 29.15C67.75 30.85 66.9 33.1 65.7 35.9L57 57.5H42.15Z" fill="#80FFA3"/>
</g>
<defs>
<clipPath id="clip0_766_976">
<rect width="75" height="65" fill="white"/>
</clipPath>
</defs>
</svg>
